<svg xmlns="http://www.w3.org/2000/svg" version="1.1" xmlns:xlink="http://www.w3.org/1999/xlink" xmlns:svgjs="http://svgjs.dev/svgjs" width="1000" height="623" viewBox="0 0 1000 623"><g transform="matrix(1,0,0,1,-0.6060606060606233,0.2522267206477409)"><svg viewBox="0 0 396 247" data-background-color="#ffffff" preserveAspectRatio="xMidYMid meet" height="623" width="1000" xmlns="http://www.w3.org/2000/svg" xmlns:xlink="http://www.w3.org/1999/xlink"><g id="tight-bounds" transform="matrix(1,0,0,1,0.2400000000000091,-0.09999999999999432)"><svg viewBox="0 0 395.52 247.2" height="247.2" width="395.52"><g><svg></svg></g><g><svg viewBox="0 0 395.52 247.2" height="247.2" width="395.52"><g transform="matrix(1,0,0,1,75.54432000000001,105.03326838434164)"><svg viewBox="0 0 244.43135999999996 37.13346323131672" height="37.13346323131672" width="244.43135999999996"><g><svg viewBox="0 0 244.43135999999996 37.13346323131672" height="37.13346323131672" width="244.43135999999996"><g><svg viewBox="0 0 244.43135999999996 37.13346323131672" height="37.13346323131672" width="244.43135999999996"><g><svg viewBox="0 0 244.43135999999996 37.13346323131672" height="37.13346323131672" width="244.43135999999996"><g id="textblocktransform"><svg viewBox="0 0 244.43135999999996 37.13346323131672" height="37.13346323131672" width="244.43135999999996" id="textblock"><g><svg viewBox="0 0 244.43135999999996 37.13346323131672" height="37.13346323131672" width="244.43135999999996"><g transform="matrix(1,0,0,1,0,0)"><svg width="244.43135999999996" viewBox="2.049999952316284 -38.22999954223633 308.69000244140625 46.900001525878906" height="37.13346323131672" data-palette-color="#f33c3c"><path d="M22.71 0L22.71-1.34Q19.65 0.46 16.25 0.46 12.84 0.46 10.27-0.55 7.69-1.56 5.86-3.37L5.86-3.37Q2.05-7.15 2.05-13.21L2.05-13.21Q2.05-18.82 5.81-22.56L5.81-22.56Q9.81-26.51 16.26-26.51L16.26-26.51Q19.68-26.51 22.71-25.02L22.71-25.02 22.71-34.55 32.76-34.55 32.76 0 22.71 0ZM15.77-24.73L15.77-24.73Q15.01-24.73 14.33-24.63L14.33-24.63 14.33-1.49Q15.21-1.34 16.24-1.34L16.24-1.34Q19.63-1.34 22.71-3.49L22.71-3.49 22.71-22.85Q19.41-24.73 15.77-24.73ZM63.4-5.93L63.4-5.93Q64.35-5.93 64.35-5.05L64.35-5.05Q64.35-4.39 63.5-3.49L63.5-3.49Q59.64 0.46 52.93 0.46L52.93 0.46Q46.9 0.46 42.77-3.17L42.77-3.17Q38.5-6.96 38.5-12.74L38.5-12.74Q38.5-18.65 42.36-22.46L42.36-22.46Q46.43-26.51 53.2-26.51L53.2-26.51Q58.62-26.51 62.3-23.22L62.3-23.22Q66.28-19.68 66.28-13.92L66.28-13.92Q66.28-13.09 66.23-12.16L66.23-12.16 50.12-12.16 50.12-1.68Q51.78-1.34 53.85-1.34L53.85-1.34Q58.25-1.34 61.35-4.25L61.35-4.25Q61.98-4.88 62.25-5.25L62.25-5.25Q62.81-5.93 63.4-5.93ZM56.88-13.94L56.88-24.27Q55.3-24.73 53.29-24.73 51.29-24.73 50.12-24.46L50.12-24.46 50.12-13.94 56.88-13.94ZM81.76 1.1L68.35-26.07 79.41-26.07 86.05-12.38 90.23-20.68Q91.52-23.34 91.85-24.63 92.18-25.93 92.51-26.22 92.84-26.51 93.32-26.51 93.79-26.51 94.06-26.2 94.33-25.88 94.33-25.56 94.33-25.24 94.27-24.93 94.21-24.61 94.04-24.07L94.04-24.07Q93.67-23.07 92.5-20.61L92.5-20.61 81.76 1.1ZM96.67-3.27L96.67-3.27Q96.67-3.64 96.93-3.94 97.18-4.25 97.6-4.25 98.01-4.25 98.28-4L98.28-4Q98.28-4 98.89-3.44L98.89-3.44Q101.43-1.22 106-1.22L106-1.22Q109.07-1.22 109.95-2.49L109.95-2.49Q110.2-2.83 110.2-3.19 110.2-3.54 110.06-3.87 109.93-4.2 109.49-4.68 109.05-5.15 108.24-5.81L108.24-5.81 106.1-7.54Q100.77-11.69 98.8-14.28L98.8-14.28Q96.99-16.65 96.99-19.12L96.99-19.12Q96.99-22.22 99.85-24.32L99.85-24.32Q102.8-26.51 107.49-26.51L107.49-26.51Q110.78-26.51 112.69-25.76 114.59-25 115.37-24.38 116.15-23.75 116.15-23.24L116.15-23.24Q116.15-22.19 115.32-22.19L115.32-22.19Q114.93-22.19 114.6-22.47 114.27-22.75 113.3-23.43 112.32-24.1 110.71-24.49 109.1-24.88 107.71-24.88 106.32-24.88 105.74-24.44 105.17-24 105.17-23.57 105.17-23.14 105.34-22.77 105.51-22.39 105.97-21.88L105.97-21.88Q107.05-20.61 109.42-18.87 111.78-17.14 113.42-15.7 115.06-14.26 115.98-13.04L115.98-13.04Q117.67-10.84 117.67-8.59 117.67-6.35 116.84-4.75 116.01-3.15 114.47-2L114.47-2Q111.22 0.46 105.8 0.46L105.8 0.46Q101.46 0.46 98.55-1.2L98.55-1.2Q96.67-2.25 96.67-3.27ZM140.15 0.46L140.15 0.46Q136.76 0.46 133.58-1.07L133.58-1.07 133.58 0 123.55 0 123.55-34.55 133.58-34.55 133.58-24.83Q136.68-26.51 140.08-26.51 143.47-26.51 146.03-25.51 148.6-24.51 150.43-22.75L150.43-22.75Q154.21-19.04 154.21-13.26L154.21-13.26Q154.21-7.42 150.48-3.56L150.48-3.56Q146.62 0.46 140.15 0.46ZM140.08-24.73L140.08-24.73Q136.46-24.73 133.58-22.73L133.58-22.73 133.58-3.15Q136.78-1.34 140.76-1.34L140.76-1.34 141.4-1.34Q141.69-1.34 141.96-1.39L141.96-1.39 141.96-24.58Q141.03-24.73 140.08-24.73ZM165.03 5.76L165.03 5.76Q166.52 5.3 167.1 4.57L167.1 4.57Q167.93 3.59 169.1 1.05L169.1 1.05 169.67-0.24 156.36-26.07 167.47-26.07 174.4-11.33 178.41-20.68Q179.5-23.24 179.85-24.58 180.19-25.93 180.52-26.22 180.85-26.51 181.32-26.51 181.8-26.51 182.07-26.22 182.34-25.93 182.34-25.63 182.34-25.34 182.28-25.01 182.21-24.68 182.03-24.13 181.85-23.58 181.51-22.75L181.51-22.75 171.37 0.73Q169.57 4.98 167.91 6.71L167.91 6.71Q166.49 8.25 165.04 8.25 163.59 8.25 163.59 7.24 163.59 6.23 165.03 5.76ZM205.06 0L205.06-1.34Q202.01 0.46 198.61 0.46 195.2 0.46 192.62-0.55 190.05-1.56 188.22-3.37L188.22-3.37Q184.41-7.15 184.41-13.21L184.41-13.21Q184.41-18.82 188.17-22.56L188.17-22.56Q192.17-26.51 198.62-26.51L198.62-26.51Q202.04-26.51 205.06-25.02L205.06-25.02 205.06-34.55 215.12-34.55 215.12 0 205.06 0ZM198.13-24.73L198.13-24.73Q197.37-24.73 196.69-24.63L196.69-24.63 196.69-1.49Q197.57-1.34 198.59-1.34L198.59-1.34Q201.99-1.34 205.06-3.49L205.06-3.49 205.06-22.85Q201.77-24.73 198.13-24.73ZM228.23-30.35Q225.71-30.35 224.3-31.47 222.88-32.59 222.88-34.42L222.88-34.42Q222.88-35.96 224.45-37.06L224.45-37.06Q226.11-38.23 227.96-38.23 229.82-38.23 230.83-37.87 231.84-37.5 232.55-36.91L232.55-36.91Q233.97-35.72 233.97-34.13L233.97-34.13Q233.97-32.54 232.36-31.45L232.36-31.45Q230.74-30.35 228.23-30.35ZM223.1 0L223.1-26.07 233.6-26.07 233.6 0 223.1 0ZM246.9-7.96L246.9-7.96Q244.73-7.3 244.73-6.52L244.73-6.52Q244.73-5.76 246-5.47L246-5.47Q248.47-4.88 252.79-4.77 257.11-4.66 259.29-4.11 261.48-3.56 262.77-2.73L262.77-2.73Q265.12-1.2 265.12 1.34L265.12 1.34Q265.12 4.52 261.97 6.49L261.97 6.49Q258.48 8.67 252.13 8.67L252.13 8.67Q245.56 8.67 241.29 6.71L241.29 6.71Q239.75 5.96 239.75 5L239.75 5Q239.75 4.59 240.06 4.35 240.36 4.1 240.7 4.1L240.7 4.1Q241.12 4.1 241.65 4.42L241.65 4.42Q242.9 5.13 243.96 5.6 245.02 6.08 247.29 6.52 249.56 6.96 251.68 6.96 253.79 6.96 255.12 6.77 256.45 6.59 257.33 6.35L257.33 6.35Q259.06 5.83 259.06 5.2L259.06 5.2Q259.06 4.61 258.72 4.35 258.38 4.08 257.83 3.87 257.28 3.66 256.3 3.49L256.3 3.49Q254.3 3.15 250.86 2.98 247.42 2.81 245.41 2.31 243.41 1.81 242.14 1.03L242.14 1.03Q239.68-0.46 239.68-3L239.68-3Q239.68-6.67 244.63-8.94L244.63-8.94Q242.36-10.18 241.02-12.22 239.68-14.26 239.68-16.64 239.68-19.02 240.57-20.76 241.46-22.51 243.07-23.78L243.07-23.78Q246.46-26.51 251.84-26.51L251.84-26.51Q254.23-26.51 256.65-25.78L256.65-25.78Q260.11-29.13 263.07-29.13L263.07-29.13Q264.31-29.13 264.91-28.71 265.51-28.3 265.51-27.66L265.51-27.66Q265.51-27.03 265.09-26.75 264.68-26.46 264.31-26.46L264.31-26.46Q263.65-26.46 263.19-26.61L263.19-26.61Q262.5-26.86 261.8-26.86L261.8-26.86Q260.48-26.86 258.48-25.02L258.48-25.02Q262.46-23.07 263.68-19.41L263.68-19.41Q264.07-18.19 264.07-16.42 264.07-14.65 263.04-12.89 262.02-11.13 260.31-9.86L260.31-9.86Q256.74-7.23 251.93-7.23L251.93-7.23Q249.39-7.18 246.9-7.96ZM252.03-24.78L252.03-9.01Q255.99-9.06 258.84-10.94L258.84-10.94Q262.14-13.09 262.14-16.75 262.14-20.41 258.89-22.66L258.89-22.66Q255.91-24.71 252.03-24.78L252.03-24.78ZM276.05-7.96L276.05-7.96Q273.88-7.3 273.88-6.52L273.88-6.52Q273.88-5.76 275.15-5.47L275.15-5.47Q277.61-4.88 281.94-4.77 286.26-4.66 288.44-4.11 290.63-3.56 291.92-2.73L291.92-2.73Q294.26-1.2 294.26 1.34L294.26 1.34Q294.26 4.52 291.12 6.49L291.12 6.49Q287.62 8.67 281.28 8.67L281.28 8.67Q274.71 8.67 270.44 6.71L270.44 6.71Q268.9 5.96 268.9 5L268.9 5Q268.9 4.59 269.2 4.35 269.51 4.1 269.85 4.1L269.85 4.1Q270.27 4.1 270.8 4.42L270.8 4.42Q272.05 5.13 273.11 5.6 274.17 6.08 276.44 6.52 278.71 6.96 280.82 6.96 282.94 6.96 284.27 6.77 285.6 6.59 286.48 6.35L286.48 6.35Q288.21 5.83 288.21 5.2L288.21 5.2Q288.21 4.61 287.87 4.35 287.53 4.08 286.98 3.87 286.43 3.66 285.45 3.49L285.45 3.49Q283.45 3.15 280.01 2.98 276.56 2.81 274.56 2.31 272.56 1.81 271.29 1.03L271.29 1.03Q268.83-0.46 268.83-3L268.83-3Q268.83-6.67 273.78-8.94L273.78-8.94Q271.51-10.18 270.17-12.22 268.83-14.26 268.83-16.64 268.83-19.02 269.72-20.76 270.61-22.51 272.22-23.78L272.22-23.78Q275.61-26.51 280.98-26.51L280.98-26.51Q283.38-26.51 285.79-25.78L285.79-25.78Q289.26-29.13 292.21-29.13L292.21-29.13Q293.46-29.13 294.06-28.71 294.66-28.3 294.66-27.66L294.66-27.66Q294.66-27.03 294.24-26.75 293.83-26.46 293.46-26.46L293.46-26.46Q292.8-26.46 292.34-26.61L292.34-26.61Q291.65-26.86 290.94-26.86L290.94-26.86Q289.63-26.86 287.62-25.02L287.62-25.02Q291.6-23.07 292.82-19.41L292.82-19.41Q293.21-18.19 293.21-16.42 293.21-14.65 292.19-12.89 291.16-11.13 289.46-9.86L289.46-9.86Q285.89-7.23 281.08-7.23L281.08-7.23Q278.54-7.18 276.05-7.96ZM281.18-24.78L281.18-9.01Q285.13-9.06 287.99-10.94L287.99-10.94Q291.29-13.09 291.29-16.75 291.29-20.41 288.04-22.66L288.04-22.66Q285.06-24.71 281.18-24.78L281.18-24.78ZM305-30.35Q302.49-30.35 301.07-31.47 299.66-32.59 299.66-34.42L299.66-34.42Q299.66-35.96 301.22-37.06L301.22-37.06Q302.88-38.23 304.74-38.23 306.59-38.23 307.6-37.87 308.62-37.5 309.33-36.91L309.33-36.91Q310.74-35.72 310.74-34.13L310.74-34.13Q310.74-32.54 309.13-31.45L309.13-31.45Q307.52-30.35 305-30.35ZM299.88 0L299.88-26.07 310.38-26.07 310.38 0 299.88 0Z" opacity="1" transform="matrix(1,0,0,1,0,0)" fill="#f33c3c" class="undefined-text-0" data-fill-palette-color="primary" id="text-0"></path></svg></g></svg></g></svg></g></svg></g></svg></g></svg></g></svg></g><path d="M181.35 99.033L181.35 36.186 6.523 36.186 6.523 211.014 181.35 211.014 181.35 148.167 178.002 148.167 178.002 207.665 9.872 207.665 9.872 39.535 178.002 39.535 178.002 99.033Z" fill="#f33c3c" stroke="transparent" data-fill-palette-color="primary"></path></svg></g><defs></defs></svg><rect width="395.52" height="247.2" fill="none" stroke="none" visibility="hidden"></rect></g></svg></g></svg>